<svg width="16" height="16" viewBox="0 0 16 16" fill="none" xmlns="http://www.w3.org/2000/svg">
<path d="M15.5782 0.421766C16.1406 0.98412 16.1406 1.89588 15.5782 2.45823L10.0368 7.99999L15.5782 13.5418C16.0937 14.0573 16.1367 14.8663 15.7071 15.4308L15.5782 15.5782C15.0159 16.1406 14.1041 16.1406 13.5418 15.5782L7.99999 10.0368L2.45823 15.5782C1.89588 16.1406 0.98412 16.1406 0.421766 15.5782C-0.140589 15.0159 -0.140589 14.1041 0.421766 13.5418L5.96319 7.99999L0.421766 2.45823C-0.0937257 1.94274 -0.136683 1.13365 0.292893 0.569229L0.421766 0.421766C0.98412 -0.140589 1.89588 -0.140589 2.45823 0.421766L7.99999 5.96319L13.5418 0.421766C14.1041 -0.140589 15.0159 -0.140589 15.5782 0.421766Z" fill="#A3ABB6"/>
</svg>
