<svg width="24" height="24" viewBox="0 0 24 24" fill="none" xmlns="http://www.w3.org/2000/svg">
<path d="M7.94318 4.66555C8.40403 4.18927 9.16372 4.17677 9.64 4.63762C10.1163 5.09847 10.1288 5.85817 9.66794 6.33445L7.94318 4.66555ZM3 11.4999L2.13761 12.3343C1.68746 11.8691 1.68747 11.1307 2.13762 10.6655L3 11.4999ZM9.66795 16.6656C10.1288 17.1419 10.1163 17.9015 9.63999 18.3624C9.1637 18.8232 8.40401 18.8107 7.94316 18.3344L9.66795 16.6656ZM22 10.2999C22.6627 10.2999 23.2 10.8372 23.2 11.4999C23.2 12.1626 22.6627 12.6999 22 12.6999V10.2999ZM9.66794 6.33445L3.86238 12.3344L2.13762 10.6655L7.94318 4.66555L9.66794 6.33445ZM3.86239 10.6655L9.66795 16.6656L7.94316 18.3344L2.13761 12.3343L3.86239 10.6655ZM3 10.2999H22V12.6999H3V10.2999Z" fill="#29313A"/>
</svg>
