<svg width="16" height="16" viewBox="0 0 16 16" fill="none" xmlns="http://www.w3.org/2000/svg">
<rect width="16" height="16" fill="#E5E5E5"/>
<g clip-path="url(#clip0_30_10863)">
<rect width="375" height="842" transform="translate(-327 -380)" fill="#F4F6F8"/>
<rect x="-311" y="-24" width="343" height="236" rx="10" fill="white"/>
<rect x="-311" y="-24" width="343" height="64" rx="10" fill="white"/>
<path d="M5.85675 13.9985C5.65692 13.9988 5.46326 13.9292 5.30939 13.8017C5.22279 13.7299 5.15121 13.6418 5.09874 13.5423C5.04627 13.4428 5.01394 13.3339 5.00361 13.2219C4.99328 13.1098 5.00516 12.9969 5.03855 12.8895C5.07194 12.7821 5.1262 12.6823 5.19821 12.5958L9.02971 8.01173L5.33505 3.41906C5.26401 3.33158 5.21096 3.23092 5.17894 3.12286C5.14693 3.01481 5.13659 2.9015 5.14851 2.78944C5.16043 2.67738 5.19438 2.56878 5.24841 2.46988C5.30244 2.37098 5.37548 2.28374 5.46334 2.21316C5.55183 2.1353 5.65545 2.07657 5.76772 2.04066C5.87998 2.00475 5.99845 1.99243 6.1157 2.00448C6.23295 2.01652 6.34644 2.05268 6.44905 2.11066C6.55167 2.16865 6.64119 2.24722 6.712 2.34145L10.8428 7.47292C10.9686 7.62596 11.0374 7.81791 11.0374 8.01601C11.0374 8.2141 10.9686 8.40606 10.8428 8.55909L6.56661 13.6906C6.48081 13.7941 6.37182 13.8759 6.24849 13.9294C6.12515 13.9829 5.99094 14.0065 5.85675 13.9985Z" fill="#B8BEC6"/>
</g>
<defs>
<clipPath id="clip0_30_10863">
<rect width="375" height="842" fill="white" transform="translate(-327 -380)"/>
</clipPath>
</defs>
</svg>
