<svg width="57" height="49" viewBox="0 0 57 49" fill="none" xmlns="http://www.w3.org/2000/svg">
<rect width="57" height="49" fill="#E5E5E5"/>
<g clip-path="url(#clip0_30_10863)">
<rect width="375" height="842" transform="translate(-160 -483)" fill="#F4F6F8"/>
<path d="M0.833252 9.00004C0.833252 6.7015 1.74634 4.4971 3.37166 2.87178C4.99698 1.24647 7.20138 0.333374 9.49992 0.333374H45.4999C46.638 0.333374 47.765 0.557544 48.8165 0.993085C49.868 1.42863 50.8234 2.06701 51.6282 2.87178C52.433 3.67656 53.0713 4.63196 53.5069 5.68345C53.9424 6.73494 54.1666 7.86192 54.1666 9.00004V12.3334H0.833252V9.00004ZM25.2973 37.6667H9.49992C7.20138 37.6667 4.99698 36.7536 3.37166 35.1283C1.74634 33.503 0.833252 31.2986 0.833252 29V16.3334H42.1666C39.5499 16.3328 36.967 16.9247 34.6116 18.0646C32.2563 19.2046 30.1896 20.863 28.5665 22.9155C26.9435 24.9681 25.8062 27.3614 25.24 29.9161C24.6738 32.4709 24.6934 35.1206 25.2973 37.6667V37.6667ZM42.1666 19C46.0564 19 49.787 20.5453 52.5375 23.2958C55.288 26.0463 56.8333 29.7769 56.8333 33.6667C56.8333 37.5566 55.288 41.2871 52.5375 44.0376C49.787 46.7881 46.0564 48.3334 42.1666 48.3334C38.2767 48.3334 34.5462 46.7881 31.7957 44.0376C29.0452 41.2871 27.4999 37.5566 27.4999 33.6667C27.4999 29.7769 29.0452 26.0463 31.7957 23.2958C34.5462 20.5453 38.2767 19 42.1666 19V19ZM47.4999 33.6667H42.1666V27C42.1666 26.6464 42.0261 26.3073 41.7761 26.0572C41.526 25.8072 41.1869 25.6667 40.8333 25.6667C40.4796 25.6667 40.1405 25.8072 39.8904 26.0572C39.6404 26.3073 39.4999 26.6464 39.4999 27V35C39.4999 35.3537 39.6404 35.6928 39.8904 35.9429C40.1405 36.1929 40.4796 36.3334 40.8333 36.3334H47.4999C47.8535 36.3334 48.1927 36.1929 48.4427 35.9429C48.6928 35.6928 48.8333 35.3537 48.8333 35C48.8333 34.6464 48.6928 34.3073 48.4427 34.0572C48.1927 33.8072 47.8535 33.6667 47.4999 33.6667Z" fill="#A3ABB6"/>
</g>
<defs>
<clipPath id="clip0_30_10863">
<rect width="375" height="842" fill="white" transform="translate(-160 -483)"/>
</clipPath>
</defs>
</svg>
