<svg width="12" height="7" viewBox="0 0 12 7" fill="none" xmlns="http://www.w3.org/2000/svg">
<path d="M0.166878 1.33333C0.166498 1.13862 0.23431 0.949928 0.358544 0.800001C0.428502 0.715619 0.514421 0.645868 0.611376 0.594741C0.708332 0.543614 0.814421 0.512117 0.923568 0.502054C1.03271 0.491991 1.14278 0.503559 1.24745 0.536096C1.35211 0.568633 1.44934 0.621499 1.53354 0.691668L6.00021 4.425L10.4752 0.825002C10.5605 0.75578 10.6585 0.704087 10.7638 0.672894C10.8691 0.641701 10.9795 0.631623 11.0887 0.643239C11.1979 0.654855 11.3037 0.687936 11.4001 0.740581C11.4964 0.793225 11.5814 0.864396 11.6502 0.950002C11.7261 1.03622 11.7833 1.13719 11.8183 1.24658C11.8533 1.35597 11.8653 1.4714 11.8535 1.58565C11.8418 1.69989 11.8066 1.81048 11.7501 1.91046C11.6936 2.01045 11.617 2.09767 11.5252 2.16667L6.52521 6.19167C6.3761 6.31424 6.18907 6.38124 5.99604 6.38124C5.80302 6.38124 5.61599 6.31424 5.46688 6.19167L0.466879 2.025C0.366031 1.9414 0.286311 1.83521 0.234187 1.71503C0.182063 1.59486 0.159002 1.46409 0.166878 1.33333Z" fill="#B8BEC6"/>
</svg>
