<svg width="24" height="24" viewBox="0 0 24 24" fill="none" xmlns="http://www.w3.org/2000/svg">
<rect width="24" height="24" fill="#E5E5E5"/>
<g clip-path="url(#clip0_30_10863)">
<rect width="375" height="842" transform="translate(-32 -376)" fill="#F4F6F8"/>
<rect x="-16" y="-20" width="343" height="236" rx="10" fill="white"/>
<rect x="-16" y="-20" width="343" height="64" rx="10" fill="white"/>
<g clip-path="url(#clip1_30_10863)">
<path d="M5.40283 15.4722H8.18061C8.37238 15.4722 8.52783 15.6276 8.52783 15.8194V18.5972C8.52783 18.7889 8.37238 18.9444 8.18061 18.9444H5.40283C5.21107 18.9444 5.05561 18.7889 5.05561 18.5972V15.8194C5.05561 15.6276 5.21107 15.4722 5.40283 15.4722Z" fill="#A3ABB6"/>
<path d="M8.87511 12.6943H10.9584C11.1502 12.6943 11.3057 12.8498 11.3057 13.0416V15.1249C11.3057 15.3167 11.1502 15.4721 10.9584 15.4721H8.87511C8.68334 15.4721 8.52789 15.3167 8.52789 15.1249V13.0416C8.52789 12.8498 8.68334 12.6943 8.87511 12.6943Z" fill="#A3ABB6"/>
<path d="M2.62511 18.9443H4.70844C4.90021 18.9443 5.05566 19.0998 5.05566 19.2916V21.3749C5.05566 21.5667 4.90021 21.7221 4.70844 21.7221H2.62511C2.43334 21.7221 2.27789 21.5667 2.27789 21.3749V19.2916C2.27789 19.0998 2.43334 18.9443 2.62511 18.9443Z" fill="#A3ABB6"/>
<path d="M2.62522 12.6943H4.01411C4.20587 12.6943 4.36133 12.8498 4.36133 13.0416V14.4304C4.36133 14.6222 4.20587 14.7777 4.01411 14.7777H2.62522C2.43345 14.7777 2.27799 14.6222 2.27799 14.4304V13.0416C2.27799 12.8498 2.43345 12.6943 2.62522 12.6943Z" fill="#A3ABB6"/>
<path d="M9.56955 19.6388H10.9584C11.1502 19.6388 11.3057 19.7943 11.3057 19.986V21.3749C11.3057 21.5667 11.1502 21.7221 10.9584 21.7221H9.56955C9.37779 21.7221 9.22233 21.5667 9.22233 21.3749V19.986C9.22233 19.7943 9.37779 19.6388 9.56955 19.6388Z" fill="#A3ABB6"/>
<path d="M5.40283 5.05554H8.18061C8.37238 5.05554 8.52783 5.211 8.52783 5.40276V8.18054C8.52783 8.37231 8.37238 8.52776 8.18061 8.52776H5.40283C5.21107 8.52776 5.05561 8.37231 5.05561 8.18054V5.40276C5.05561 5.211 5.21107 5.05554 5.40283 5.05554Z" fill="#A3ABB6"/>
<path d="M3.66688 2.97217H9.91688C10.3004 2.97217 10.6113 3.28308 10.6113 3.66661V9.91661C10.6113 10.3001 10.3004 10.6111 9.91688 10.6111H3.66688C3.28335 10.6111 2.97244 10.3001 2.97244 9.91661V3.66661C2.97244 3.28308 3.28335 2.97217 3.66688 2.97217Z" stroke="#A3ABB6" stroke-width="1.7" stroke-linecap="round" stroke-linejoin="round"/>
<path d="M15.8193 5.05554H18.5971C18.7889 5.05554 18.9443 5.211 18.9443 5.40276V8.18054C18.9443 8.37231 18.7889 8.52776 18.5971 8.52776H15.8193C15.6276 8.52776 15.4721 8.37231 15.4721 8.18054V5.40276C15.4721 5.211 15.6276 5.05554 15.8193 5.05554Z" fill="#A3ABB6"/>
<path d="M14.0834 2.97217H20.3334C20.7169 2.97217 21.0278 3.28308 21.0278 3.66661V9.91661C21.0278 10.3001 20.7169 10.6111 20.3334 10.6111H14.0834C13.6999 10.6111 13.3889 10.3001 13.3889 9.91661V3.66661C13.3889 3.28308 13.6999 2.97217 14.0834 2.97217Z" stroke="#A3ABB6" stroke-width="1.7" stroke-linecap="round" stroke-linejoin="round"/>
<path d="M15.8193 15.4722H18.5971C18.7889 15.4722 18.9443 15.6276 18.9443 15.8194V18.5972C18.9443 18.7889 18.7889 18.9444 18.5971 18.9444H15.8193C15.6276 18.9444 15.4721 18.7889 15.4721 18.5972V15.8194C15.4721 15.6276 15.6276 15.4722 15.8193 15.4722Z" fill="#A3ABB6"/>
<path d="M14.0834 13.3888H20.3334C20.7169 13.3888 21.0278 13.6997 21.0278 14.0832V20.3332C21.0278 20.7168 20.7169 21.0277 20.3334 21.0277H14.0834C13.6999 21.0277 13.3889 20.7168 13.3889 20.3332V14.0832C13.3889 13.6997 13.6999 13.3888 14.0834 13.3888Z" stroke="#A3ABB6" stroke-width="1.7" stroke-linecap="round" stroke-linejoin="round"/>
</g>
</g>
<defs>
<clipPath id="clip0_30_10863">
<rect width="375" height="842" fill="white" transform="translate(-32 -376)"/>
</clipPath>
<clipPath id="clip1_30_10863">
<rect width="20" height="20" fill="white" transform="translate(2 2)"/>
</clipPath>
</defs>
</svg>
