<svg width="18" height="18" viewBox="0 0 18 18" fill="none" xmlns="http://www.w3.org/2000/svg">
<rect width="18" height="18" fill="#E5E5E5"/>
<g clip-path="url(#clip0_30_10863)">
<rect width="375" height="842" transform="translate(-35 -443)" fill="#F4F6F8"/>
<rect x="-19" y="-87" width="343" height="236" rx="10" fill="white"/>
<rect x="-16" y="-23" width="337" height="64" rx="10" fill="white"/>
<path d="M12.5303 9.21979C12.2374 8.9269 11.7626 8.9269 11.4697 9.21979C11.1768 9.51269 11.1768 9.98756 11.4697 10.2805L12.5303 9.21979ZM14.25 12.0001L14.7803 12.5305C14.921 12.3898 15 12.199 15 12.0001C15 11.8012 14.921 11.6104 14.7803 11.4698L14.25 12.0001ZM11.4697 13.7198C11.1768 14.0127 11.1768 14.4876 11.4697 14.7805C11.7626 15.0733 12.2374 15.0733 12.5303 14.7805L11.4697 13.7198ZM11.4697 10.2805L13.7197 12.5305L14.7803 11.4698L12.5303 9.21979L11.4697 10.2805ZM13.7197 11.4698L11.4697 13.7198L12.5303 14.7805L14.7803 12.5305L13.7197 11.4698Z" fill="#A3ABB6"/>
<path d="M3.75 11.2501C3.33579 11.2501 3 11.5859 3 12.0001C3 12.4143 3.33579 12.7501 3.75 12.7501V11.2501ZM14.25 12.7501C14.6642 12.7501 15 12.4143 15 12.0001C15 11.5859 14.6642 11.2501 14.25 11.2501V12.7501ZM3.75 12.7501H14.25V11.2501H3.75V12.7501Z" fill="#A3ABB6"/>
<path d="M5.46967 8.78021C5.76256 9.0731 6.23744 9.0731 6.53033 8.78021C6.82322 8.48732 6.82322 8.01244 6.53033 7.71955L5.46967 8.78021ZM3.75 5.99988L3.21967 5.46955C2.92678 5.76244 2.92678 6.23732 3.21967 6.53021L3.75 5.99988ZM6.53033 4.28021C6.82322 3.98731 6.82322 3.51244 6.53033 3.21955C6.23744 2.92665 5.76256 2.92665 5.46967 3.21955L6.53033 4.28021ZM6.53033 7.71955L4.28033 5.46955L3.21967 6.53021L5.46967 8.78021L6.53033 7.71955ZM4.28033 6.53021L6.53033 4.28021L5.46967 3.21955L3.21967 5.46955L4.28033 6.53021Z" fill="#A3ABB6"/>
<path d="M14.25 6.74988C14.6642 6.74988 15 6.41409 15 5.99988C15 5.58566 14.6642 5.24988 14.25 5.24988V6.74988ZM3.75 5.24988C3.33579 5.24988 3 5.58567 3 5.99988C3 6.41409 3.33579 6.74988 3.75 6.74988L3.75 5.24988ZM14.25 5.24988L3.75 5.24988L3.75 6.74988L14.25 6.74988V5.24988Z" fill="#A3ABB6"/>
</g>
<defs>
<clipPath id="clip0_30_10863">
<rect width="375" height="842" fill="white" transform="translate(-35 -443)"/>
</clipPath>
</defs>
</svg>
